<mxfile host="app.diagrams.net" modified="2024-05-30T20:46:42.613Z" agent="Mozilla/5.0 (Windows NT 10.0; Win64; x64; rv:126.0) Gecko/20100101 Firefox/126.0" version="24.4.10" etag="Gous7U320j74JDq9KStv" type="github">
  <diagram name="Page-1" id="rYwUWXW3T4NsigJ2j0Kv">
    <mxGraphModel>
      <root>
        <mxCell id="0" />
        <mxCell id="1" parent="0" />
      </root>
    </mxGraphModel>
  </diagram>
</mxfile>
